<svg version="1.1" id="Layer_1" xmlns="http://www.w3.org/2000/svg" xmlns:xlink="http://www.w3.org/1999/xlink" x="0px" y="0px"
	 width="100%" viewBox="0 0 1024 1024" enable-background="new 0 0 1024 1024" xml:space="preserve">
<path fill="#000000" opacity="1.000000" stroke="none" 
	d="
M124.775269,431.835876 
	C138.435669,412.846283 155.902481,400.101044 178.774506,395.533936 
	C224.619339,386.379639 269.337036,414.215118 281.380768,459.318604 
	C295.172577,510.968658 263.132111,562.301880 210.061081,571.712524 
	C198.596405,573.745483 190.731949,579.507690 182.671082,586.362122 
	C179.247498,589.273315 175.871918,592.242004 172.413971,595.111572 
	C168.089157,598.700500 163.314957,601.037598 157.755676,598.242554 
	C152.133835,595.416199 149.991852,590.217041 149.708618,584.255798 
	C149.455902,578.937439 149.965225,573.561646 149.430435,568.282898 
	C148.671829,560.795105 144.351578,555.115540 138.956329,550.099365 
	C123.736633,535.948914 114.039452,518.808289 110.466507,498.168518 
	C106.316284,474.194000 111.500847,452.353882 124.775269,431.835876 
M153.767441,428.272003 
	C152.539810,429.398315 151.265198,430.477936 150.091644,431.658051 
	C132.727936,449.118927 125.600250,470.051910 129.234406,494.429535 
	C132.300659,514.997864 143.168457,530.777771 159.873413,542.771240 
	C164.223572,545.894470 166.309158,549.868286 166.496887,555.425903 
	C166.701218,561.474609 167.417313,567.543640 167.475616,574.826904 
	C170.677612,572.227783 173.136307,570.573242 175.184082,568.510742 
	C184.102936,559.527649 194.324799,554.458862 207.283051,552.383362 
	C235.265747,547.901306 253.529831,530.466309 262.245880,503.866730 
	C270.918823,477.398804 263.857117,453.676849 245.434814,433.737640 
	C221.830734,408.190033 182.735001,406.076721 153.767441,428.272003 
z"/>
<path fill="#000000" opacity="1.000000" stroke="none" 
	d="
M679.997620,509.283875 
	C667.351196,509.271362 667.352661,509.271362 667.348694,521.236877 
	C667.346130,528.894287 667.267944,536.552551 667.368713,544.208557 
	C667.407349,547.146667 666.351013,548.486511 663.306824,548.384155 
	C659.316162,548.249878 655.299988,548.116394 651.327209,548.414917 
	C647.031189,548.737854 645.454468,547.310425 645.561096,542.821594 
	C645.837769,531.175598 645.736023,519.517883 645.634094,507.866180 
	C645.440491,485.733521 645.130737,463.601959 644.892334,441.469666 
	C644.818298,434.595581 644.852417,434.602966 651.957764,434.613586 
	C664.775574,434.632782 677.618042,434.146759 690.404785,434.784027 
	C705.398987,435.531219 718.831726,440.263885 725.235474,455.414581 
	C734.374207,477.036072 725.134338,505.492065 694.416809,508.431702 
	C689.774658,508.875946 685.158386,509.411957 679.997620,509.283875 
M683.190918,452.363525 
	C679.203369,452.369110 675.214294,452.442688 671.228760,452.356171 
	C668.609436,452.299286 667.190308,453.140015 667.221375,456.038055 
	C667.333374,466.504364 667.338135,476.971863 667.364624,487.438995 
	C667.369385,489.324310 667.924561,490.846466 670.070557,490.846344 
	C677.842651,490.845917 685.719971,491.792542 693.246765,488.999451 
	C701.279175,486.018768 706.088379,478.483429 705.635437,469.899567 
	C705.212769,461.891052 700.436462,455.944061 692.424500,453.788147 
	C689.722778,453.061157 686.887756,452.829651 683.190918,452.363525 
z"/>
<path fill="#000000" opacity="1.000000" stroke="none" 
	d="
M391.147217,438.613403 
	C406.425415,445.712341 412.966797,458.180817 411.298553,476.444733 
	C409.924072,491.492981 399.101807,503.820709 384.103973,507.194275 
	C376.952972,508.802795 369.678558,509.378021 362.333923,509.328430 
	C350.348480,509.247437 350.346436,509.320770 350.341919,521.516724 
	C350.339203,528.842285 350.206451,536.171387 350.400238,543.491821 
	C350.496277,547.119202 349.293427,548.659668 345.542664,548.424622 
	C341.728210,548.185608 337.873444,548.161316 334.061981,548.420166 
	C329.983215,548.697144 328.506470,547.230225 328.580750,543.046143 
	C328.799347,530.729858 328.657806,518.407104 328.658600,506.086884 
	C328.660004,484.443237 328.662384,462.799561 328.664337,441.155914 
	C328.664490,439.185059 328.664337,437.214203 328.664337,435.416565 
	C331.120453,434.024750 333.309906,434.628357 335.412842,434.624084 
	C347.233521,434.600250 359.054749,434.704620 370.874817,434.623322 
	C377.795105,434.575714 384.388489,435.948120 391.147217,438.613403 
M350.337860,467.505981 
	C350.343658,473.822205 350.332184,480.138489 350.366272,486.454559 
	C350.375946,488.249420 350.076843,490.638000 352.647064,490.680573 
	C361.873505,490.833405 371.297302,492.243073 379.841919,487.057373 
	C386.310913,483.131409 389.868805,475.145386 388.523041,467.315521 
	C387.248413,459.899750 382.125397,455.078430 374.167786,453.361755 
	C367.583496,451.941315 360.948456,452.574158 354.330505,452.357147 
	C351.280060,452.257141 350.170532,453.590851 350.298279,456.537933 
	C350.442200,459.856110 350.335449,463.185150 350.337860,467.505981 
z"/>
<path fill="#000000" opacity="1.000000" stroke="none" 
	d="
M765.941284,532.415161 
	C774.942627,533.531128 782.710083,532.426636 787.610535,524.095032 
	C788.175659,523.134277 789.057983,522.736267 790.108032,522.733459 
	C796.223755,522.716980 802.339539,522.725403 809.137451,522.725403 
	C805.777222,533.275513 800.140930,541.231140 790.822815,545.507019 
	C775.302979,552.628784 759.793396,552.098511 745.299927,542.480225 
	C736.120972,536.388855 731.826416,527.023132 730.301880,516.464172 
	C728.275269,502.428345 729.357422,488.791290 738.331177,477.013824 
	C745.261230,467.918579 754.605652,462.941345 766.158936,462.684967 
	C771.954712,462.556366 777.752991,462.293854 783.458191,464.152069 
	C800.444885,469.684692 809.247070,483.484406 810.208862,502.339020 
	C810.799927,513.926758 811.473145,512.293518 800.698853,512.355347 
	C785.872314,512.440491 771.044861,512.338806 756.217957,512.372681 
	C751.205017,512.384094 750.692139,513.212402 752.066467,517.985168 
	C754.111328,525.086548 758.708008,529.737244 765.941284,532.415161 
M752.579834,497.331207 
	C763.364868,497.431213 774.150024,497.524048 784.934937,497.635193 
	C788.590027,497.672852 789.041260,495.860687 788.062195,492.778625 
	C785.000793,483.141968 776.424133,477.809448 766.402954,479.460083 
	C758.122009,480.824066 751.113770,489.275055 752.579834,497.331207 
z"/>
<path fill="#000000" opacity="1.000000" stroke="none" 
	d="
M485.377808,477.715210 
	C491.876526,487.369598 493.682983,497.827850 493.357025,508.879883 
	C493.240692,512.824219 490.592560,512.355042 488.142975,512.358887 
	C472.323792,512.383728 456.504486,512.366089 440.685242,512.379333 
	C433.961548,512.384949 433.248444,513.341858 435.640076,519.570679 
	C438.247406,526.361206 442.757202,531.393677 450.192749,532.532959 
	C458.019104,533.732056 465.179871,532.259155 469.912323,524.975708 
	C470.769104,523.657104 471.689606,522.661133 473.450226,522.675781 
	C479.418793,522.725403 485.388000,522.694702 492.084656,522.694702 
	C490.763031,528.955505 487.857819,533.650513 484.148041,537.854736 
	C476.614960,546.391907 466.757111,549.959290 455.680054,550.040283 
	C446.276794,550.109070 437.133301,548.554871 429.112793,543.023010 
	C419.746918,536.563232 414.847168,527.336975 413.283722,516.387024 
	C411.329742,502.701935 412.694122,489.528931 420.978333,477.782623 
	C435.604858,457.043549 471.136902,457.479706 485.377808,477.715210 
M434.487335,494.793213 
	C434.207092,497.130951 435.633606,497.618500 437.531921,497.617828 
	C447.810791,497.614319 458.089661,497.626373 468.368500,497.608521 
	C471.013031,497.603943 471.987793,496.216675 471.241791,493.723206 
	C469.782898,488.846771 467.541595,484.569946 462.855255,481.892853 
	C451.397308,475.347351 439.522034,480.427521 434.487335,494.793213 
z"/>
<path fill="#000000" opacity="1.000000" stroke="none" 
	d="
M578.349854,492.057251 
	C579.506714,497.341492 579.996643,502.274567 580.280762,507.256348 
	C580.503296,511.157715 579.026367,512.478821 575.098938,512.436707 
	C559.114502,512.265381 543.127075,512.348938 527.140869,512.386841 
	C525.182251,512.391479 523.154541,511.987091 521.275391,512.888000 
	C521.395020,521.907837 526.623901,529.469604 534.469177,532.028870 
	C542.793518,534.744385 550.779846,532.305176 556.291443,525.288208 
	C557.224976,524.099731 557.950195,522.883118 559.700684,522.687561 
	C561.649353,522.469910 575.654907,522.806519 578.029053,523.329346 
	C577.734375,531.778931 565.182434,546.477417 552.184753,548.811951 
	C536.181274,551.686340 521.333801,550.163757 509.447418,537.502258 
	C504.133301,531.841675 501.143188,524.924866 500.258972,517.406250 
	C498.370941,501.352692 499.285065,486.090363 511.395508,473.164551 
	C527.379700,456.104218 569.570496,457.849457 577.524109,489.275665 
	C577.727112,490.077606 578.035400,490.852844 578.349854,492.057251 
M525.821960,485.326782 
	C523.951599,487.702698 522.499634,490.317963 521.656982,493.217255 
	C520.853577,495.981415 521.485596,497.694061 524.889709,497.663971 
	C534.865540,497.575745 544.842651,497.617859 554.819153,497.647827 
	C557.920532,497.657166 558.825439,496.666809 557.941833,493.364868 
	C554.100586,479.010895 538.456909,474.691406 525.821960,485.326782 
z"/>
<path fill="#000000" opacity="1.000000" stroke="none" 
	d="
M891.237061,480.185547 
	C892.649109,484.884277 893.409851,489.237213 893.398132,493.800110 
	C893.354919,510.628448 893.514404,527.457275 893.574768,544.285950 
	C893.578857,545.427429 893.393433,546.569519 893.248169,548.273010 
	C887.328003,548.273010 881.531921,548.458862 875.755432,548.203186 
	C872.295105,548.050110 872.985657,545.000488 872.966431,542.805298 
	C872.835022,527.809814 872.908508,512.811401 872.658752,497.818268 
	C872.480042,487.090210 867.563721,482.170532 857.584045,482.110352 
	C847.145935,482.047424 839.543213,488.727844 839.410156,498.592590 
	C839.212280,513.253967 839.178406,527.923035 839.446228,542.582031 
	C839.531982,547.278931 837.910522,548.846313 833.424805,548.424377 
	C830.451050,548.144714 827.409363,548.129211 824.436401,548.406616 
	C820.084717,548.812683 818.602905,547.189758 818.669617,542.765320 
	C818.880615,528.771484 818.705200,514.771790 818.685425,500.774414 
	C818.670776,490.442963 818.811340,480.108337 818.583008,469.781708 
	C818.495422,465.820068 819.883057,464.313171 823.771301,464.665680 
	C826.084839,464.875488 828.433594,464.697754 830.766479,464.695068 
	C838.488708,464.686127 838.488708,464.686249 840.192993,472.281219 
	C850.412048,462.479523 862.324158,460.320343 875.306396,464.222565 
	C883.167419,466.585449 888.109985,472.318665 891.237061,480.185547 
z"/>
<path fill="#000000" opacity="1.000000" stroke="none" 
	d="
M608.319824,529.999084 
	C608.314758,535.161438 608.237183,539.825623 608.330566,544.486267 
	C608.385071,547.207275 607.322815,548.559326 604.527466,548.349121 
	C604.196655,548.324219 603.861633,548.349243 603.528748,548.358826 
	C587.651611,548.812012 587.656006,548.812012 587.648926,533.057983 
	C587.639832,512.581360 587.794800,492.105316 586.947144,471.634827 
	C586.661377,464.735168 586.931580,464.639435 593.844910,464.739471 
	C598.128235,464.801422 602.462463,464.163300 606.922058,465.289215 
	C607.204590,467.479492 607.475220,469.577271 607.755310,471.748291 
	C609.994080,471.539429 610.873962,469.724396 612.207397,468.608582 
	C618.812561,463.081299 626.554443,462.102966 634.749695,462.755188 
	C637.045410,462.937866 637.303833,464.513306 637.311401,466.284576 
	C637.331360,470.947083 637.231689,475.612518 637.369629,480.271179 
	C637.458984,483.287720 636.219604,484.405212 633.234314,484.362946 
	C628.438171,484.295074 623.612854,483.844543 618.937561,485.711823 
	C612.349792,488.342926 608.419678,493.447723 608.329102,500.525269 
	C608.205444,510.181763 608.311523,519.841187 608.319824,529.999084 
z"/>
<path fill="#000000" opacity="1.000000" stroke="none" 
	d="
M216.674576,465.335022 
	C220.485153,471.281281 224.783340,476.363831 229.743713,480.844910 
	C232.929016,483.722412 233.448242,486.965942 231.843384,490.744995 
	C225.464859,505.765076 220.229919,521.171692 216.375443,537.029419 
	C215.789948,539.438232 214.561172,540.334106 212.218735,540.327148 
	C201.727798,540.296143 191.236633,540.306091 180.745697,540.340698 
	C178.419357,540.348389 177.208618,539.472351 176.606979,537.041870 
	C172.729202,521.375732 167.647308,506.098694 161.463852,491.184601 
	C160.127518,487.961456 159.809631,484.692871 162.766403,482.007751 
	C174.051636,471.759460 181.075043,458.913361 185.734360,444.588257 
	C186.658066,441.748260 188.088638,439.075226 189.054352,436.246277 
	C190.577316,431.785065 194.245560,430.980377 198.172745,430.737518 
	C202.228378,430.486755 203.331711,433.510376 204.434555,436.639954 
	C207.856750,446.351410 210.740433,456.300659 216.674576,465.335022 
M212.750717,504.440826 
	C214.486572,500.118652 216.066818,495.724731 218.014755,491.500336 
	C219.247742,488.826355 218.983841,486.946625 216.778763,484.917023 
	C211.844925,480.375671 207.885895,474.989716 204.550705,469.203796 
	C201.781403,464.399567 199.366806,459.390839 196.621841,454.141418 
	C195.989883,455.167816 195.574966,455.693878 195.313965,456.287598 
	C190.452637,467.345825 184.427322,477.639191 175.683929,486.138428 
	C173.867981,487.903625 174.521194,489.669769 175.333862,491.610535 
	C178.738602,499.741669 181.788986,508.013947 184.213013,516.486389 
	C187.952499,529.556702 187.858704,529.480103 201.351242,528.931519 
	C204.473404,528.804504 205.715485,527.452271 206.511444,524.719727 
	C208.415573,518.182678 210.523865,511.705017 212.750717,504.440826 
z"/>
<path fill="#000000" opacity="1.000000" stroke="none" 
	d="
M190.428207,497.739563 
	C190.411240,493.703461 191.728775,490.852936 195.551941,489.914886 
	C198.673676,489.148956 201.518066,489.826233 203.484970,492.560730 
	C205.379303,495.194336 205.698654,498.044128 203.882538,500.875305 
	C202.207138,503.487122 199.629654,504.644989 196.668640,504.213623 
	C193.282089,503.720184 190.975021,501.737885 190.428207,497.739563 
z"/>
</svg>