<?xml version="1.0" encoding="UTF-8"?>
<svg id="Layer_1" xmlns="http://www.w3.org/2000/svg" version="1.1" viewBox="0 0 1920 1024">
  <!-- Generator: Adobe Illustrator 29.6.1, SVG Export Plug-In . SVG Version: 2.1.1 Build 9)  -->
  <defs>
    <style>
      .st0 {
        fill: #fff;
      }
    </style>
  </defs>
  <path class="st0" d="M720,528c-11.42,19.5-27.48,33.02-48.63,40.07-6.67,2.22-13.85,2.91-20.56,5.04-4.46,1.42-8.89,3.62-12.65,6.4-6.55,4.84-12.59,10.38-18.83,15.65-3.79,3.19-7.92,5.53-12.83,2.9-5.18-2.77-8.3-7.12-8.53-13.27-.24-6.4.13-12.97-1.23-19.15-1.01-4.61-3.51-9.51-6.8-12.88-9.51-9.76-18.56-19.63-24.17-32.31-4.42-10-6.98-20.28-7.9-31.2-1.51-17.82,2.41-34.21,10.96-49.73,7.98-14.47,18.98-25.87,33.3-34.2,13.65-7.94,28.31-11.68,44.03-11.31,15.3.36,29.6,4.44,42.68,12.4,18.51,11.27,31.34,27.43,38.58,47.68,4.83,13.5,6.52,27.71,3.48,41.94-1.87,8.74-4.72,17.28-7.39,25.83-.65,2.08-2.3,3.85-3.53,6.14M700.97,524.32c10.25-15.92,15.24-32.92,12.15-52.1-2.37-14.73-8.69-27.46-18.66-38.05-17.12-18.19-38.41-24.65-63.07-20.2-17.67,3.18-31.31,12.53-41.66,26.85-6.96,9.64-11.45,20.15-12.99,32.31-2.09,16.47.42,31.58,8.72,45.85,5.73,9.85,12.99,18.19,22.51,24.65,4,2.71,6.45,6.49,6.21,12.09-.28,6.61.74,13.27,1.21,20.22,5.8-5.05,11.38-9.82,16.86-14.69,4.87-4.33,10.62-6.2,16.97-7.35,7.39-1.33,14.84-2.98,21.85-5.6,12.21-4.56,21.58-13.13,29.91-23.96Z"/>
  <path class="st0" d="M1174.35,459.81c2.59,10.06,2.23,19.45-2.21,28.75-4.53,9.49-11.79,14.89-21.72,17.73-11.6,3.32-23.29,2.69-35.43,2.57v38.93h-21.29v-112.8c11.69,0,23.98-.36,36.23.13,7.91.32,16.02.97,23.58,3.09,10.57,2.97,17.66,10.36,20.84,21.59M1115,482.47v10.67c9.51-1.45,18.42-2.23,27.04-4.28,7.6-1.81,12.15-9.43,11.93-17.97-.2-7.76-3.62-15.39-12.2-16.8-8.98-1.47-18.12-2-26.77-2.91v31.29Z"/>
  <path class="st0" d="M797,435c8.66,0,16.86-.41,24.99.11,9.78.62,18.91,3.38,26.66,9.98,12.83,10.92,13.38,34.09,4.4,47.4-7.06,10.47-17.27,14.66-29.3,15.5-8.38.58-16.78.99-25.76,1.51v38.22h-20.72v-112.71h19.72M798,455.65v36.19c15.96.62,22.5-.31,30.18-4.53,8.06-4.43,9.53-12.03,8.72-20.16-.67-6.66-4.66-11.82-11.24-12.96-8.48-1.46-17.21-1.58-25.84-2.08-.56-.03-1.21,1.66-1.82,3.53Z"/>
  <path class="st0" d="M1236.18,523.56c6.82-.39,13.47-.39,20.1-.39-3.01,13.76-18.68,26.36-32.88,26.02-9.71-.23-19.21-.21-27.82-5.33-8.88-5.28-14-13.6-16.17-23.26-2.86-12.74-2.76-25.63,3.63-37.55,6.9-12.87,17.71-19.61,32.53-20.12,11.37-.39,21.49,2.11,29.98,10.09,8.73,8.21,11.63,18.73,12.41,30.14.19,2.78.03,5.59.03,8.7h-59.52c1.05,10.23,5.1,18.17,15.36,20.96,9.33,2.54,16.24-.54,22.35-9.27M1222.5,498h14.32c1.06-10.4-7.42-17.8-14.59-18.88-12.45-1.87-21.94,4.53-23.71,18.88h23.98Z"/>
  <path class="st0" d="M958.23,537.72c-6.23-6.41-9.32-14.19-10.02-22.34-1.12-13.06-.88-26.19,7.78-37.39,7.04-9.11,16.16-14.33,27.71-14.98,9.93-.56,19.31.58,27.81,6.75,9.34,6.78,13.49,16.21,15.42,26.96.86,4.81.91,9.76,1.37,15.18h-60.38c1.16,7.72,3.49,14.13,9.9,18.45,6.76,4.56,21.49,4.24,27.17-5.02.68-1.11,2.39-2.19,3.67-2.24,5.94-.24,11.89-.1,17.91-.1-9.81,31.05-49.63,33.69-68.35,14.72M1002.31,498h4.41c.17-9.83-6.82-18.06-15.76-19.01-12.17-1.3-21.28,5.74-22.5,19.01h33.85Z"/>
  <path class="st0" d="M890.09,548.04c-15.44-3.64-24.45-13.71-27.85-28.06-3.05-12.85-2.06-25.87,4.75-37.81,6.82-11.97,17.08-18.36,30.88-19.2,12.49-.76,23.45,2.33,32.31,11.66,7.18,7.56,9.61,16.94,10.76,26.83.38,3.27.06,6.62.06,10.45h-58.71c-1.26,9.19,6.22,19.08,14.4,20.97,8.94,2.07,20.32-1.63,22.71-9.71,6.78,0,13.56,0,20.39,0-8.26,24.44-27.93,28.58-49.71,24.86M882.22,497.99h37.69c-.02-14.19-12.02-21.54-23.94-18.45-9.38,2.43-13.2,9.42-13.74,18.45Z"/>
  <path class="st0" d="M1302.4,464.01c10.73-2.52,20.57-1.49,29.02,5.2,6.26,4.96,9.26,12.29,9.44,20,.44,19.44.15,38.9.15,58.56h-19c0-13.58.09-27.02-.05-40.46-.05-4.75-.29-9.55-1.04-14.24-1.59-9.89-13.2-14.16-22.42-10.31-8.28,3.45-11.51,9.31-11.5,17.74.02,15.64,0,31.28,0,47.2h-19.71v-82.41h19.46v7.99c5.21-3.17,10.22-6.22,15.65-9.28Z"/>
  <path class="st0" d="M1051.81,465c1.38.76,2.89,1.39,3.07,2.29.39,2.01.12,4.16.12,7.68,7.97-10.68,17.96-13.22,29.67-11.66v20.69c-3.72,0-7.64.09-11.56-.02-8.06-.21-17.6,7.02-17.26,17.08.53,15.45.14,30.93.14,46.67h-20.1v-82.73c4.96,0,10.19,0,15.9,0Z"/>
  <path class="st0" d="M656.23,449.6c4.84,12.77,12.26,23.22,21.84,32.38,1.59,1.52,1.75,5.8.97,8.32-3.73,12.08-8.03,23.97-12.06,35.96-1.12,3.34-2.41,6.72-2.84,10.18-.36,2.86-1.43,3.63-4.06,3.61-10.49-.08-20.99.04-31.48-.14-1.21-.02-3.11-1.27-3.47-2.36-5.2-15.65-10.3-31.33-15.1-47.1-.68-2.25-.64-6.08.76-7.38,12.07-11.33,19.15-25.41,24.37-40.81,1.44-4.23,1.92-9.71,8.05-11,4.2-.88,7.17.07,8.57,4.23,1.54,4.55,2.85,9.18,4.46,14.12M622.11,490.61c3.96,11.47,8.01,22.91,11.83,34.43.77,2.31,1.02,4.2,4.22,4.03,4.91-.27,9.85-.07,14.85-.07,4.7-13.5,9.58-27.5,14.59-41.87-10.17-9.46-17.81-21.34-22.29-33.62-6.22,9.51-12.78,19.51-19.29,29.54-1.44,2.21-2.69,4.55-3.91,7.56Z"/>
  <path class="st0" d="M651.98,499.84c-2.23,3.5-5.29,5.42-8.82,3.59-1.89-.98-3.85-3.8-3.89-5.82-.04-2.21,1.58-5.47,3.43-6.42,1.9-.98,5.35-.44,7.41.71,2.64,1.47,3.2,4.53,1.87,7.94Z"/>
</svg>