<svg version="1.1" id="Layer_1" xmlns="http://www.w3.org/2000/svg" xmlns:xlink="http://www.w3.org/1999/xlink" x="0px" y="0px"
	 width="100%" viewBox="0 0 229 229" enable-background="new 0 0 229 229" xml:space="preserve">
<path fill="#000000" opacity="1.000000" stroke="none" 
	d="
M130.000000,230.000000 
	C86.666672,230.000000 43.833340,230.000000 1.000006,230.000000 
	C1.000004,153.666672 1.000004,77.333351 1.000002,1.000016 
	C77.333321,1.000011 153.666641,1.000011 229.999969,1.000005 
	C229.999985,77.333321 229.999985,153.666641 230.000000,229.999969 
	C196.833328,230.000000 163.666672,230.000000 130.000000,230.000000 
M195.001526,143.469162 
	C197.344559,135.326431 200.165619,127.285400 201.924347,119.018372 
	C204.951889,104.787201 203.265472,90.589607 198.436874,77.088608 
	C191.194031,56.837276 178.313507,40.747139 159.849426,29.383602 
	C147.824188,21.982798 134.590973,18.019430 120.645332,17.112181 
	C103.781731,16.015095 87.882484,19.744778 73.122246,28.342941 
	C54.514301,39.182476 41.651173,54.842793 34.097958,74.751068 
	C29.608955,86.582886 27.706015,98.888763 28.817860,111.789986 
	C29.789480,123.064064 32.365681,133.670593 36.959007,143.925522 
	C42.545612,156.398010 51.548168,166.157227 60.963421,175.784195 
	C64.249077,179.143723 66.742157,184.060593 67.752937,188.670624 
	C69.106827,194.845490 68.735016,201.410843 68.979965,207.813278 
	C69.215012,213.956894 72.336952,218.300629 77.514008,221.069397 
	C82.421783,223.694138 86.557999,221.356842 90.341499,218.169922 
	C96.583717,212.911942 102.881294,207.718369 109.062813,202.390076 
	C113.967110,198.162735 119.417473,195.556015 125.982391,194.940826 
	C136.495148,193.955719 146.477417,190.668518 155.654312,185.629135 
	C173.077682,176.061264 186.125198,162.093948 195.001526,143.469162 
z"/>
<path fill="#FEFEFE" opacity="1.000000" stroke="none" 
	d="
M194.986298,143.861511 
	C186.125198,162.093948 173.077682,176.061264 155.654312,185.629135 
	C146.477417,190.668518 136.495148,193.955719 125.982391,194.940826 
	C119.417473,195.556015 113.967110,198.162735 109.062813,202.390076 
	C102.881294,207.718369 96.583717,212.911942 90.341499,218.169922 
	C86.557999,221.356842 82.421783,223.694138 77.514008,221.069397 
	C72.336952,218.300629 69.215012,213.956894 68.979965,207.813278 
	C68.735016,201.410843 69.106827,194.845490 67.752937,188.670624 
	C66.742157,184.060593 64.249077,179.143723 60.963421,175.784195 
	C51.548168,166.157227 42.545612,156.398010 36.959007,143.925522 
	C32.365681,133.670593 29.789480,123.064064 28.817860,111.789986 
	C27.706015,98.888763 29.608955,86.582886 34.097958,74.751068 
	C41.651173,54.842793 54.514301,39.182476 73.122246,28.342941 
	C87.882484,19.744778 103.781731,16.015095 120.645332,17.112181 
	C134.590973,18.019430 147.824188,21.982798 159.849426,29.383602 
	C178.313507,40.747139 191.194031,56.837276 198.436874,77.088608 
	C203.265472,90.589607 204.951889,104.787201 201.924347,119.018372 
	C200.165619,127.285400 197.344559,135.326431 194.986298,143.861511 
M64.589470,58.942348 
	C63.393024,60.293480 62.072742,61.554935 61.019318,63.009640 
	C50.645653,77.334877 46.060333,93.316315 46.944881,111.008064 
	C47.480465,121.720261 50.461334,131.768234 55.622696,140.906967 
	C61.406845,151.148392 68.970985,160.075897 79.046951,166.694473 
	C83.115433,169.366959 85.395950,173.251099 85.171646,178.810974 
	C84.905762,185.401428 85.926689,192.043793 86.406830,198.905396 
	C92.241478,193.824539 97.855362,189.065277 103.318459,184.138794 
	C107.917725,179.991302 113.327164,177.505157 119.356316,177.081161 
	C135.285538,175.960968 149.350082,170.127792 160.872589,159.428925 
	C179.412323,142.214401 188.204773,120.948082 183.960999,95.376221 
	C180.062515,71.884911 167.708252,54.331001 146.594910,42.910889 
	C131.739532,34.875675 115.954727,33.985050 100.038345,37.212784 
	C86.138237,40.031628 74.375854,47.434452 64.589470,58.942348 
z"/>
<path fill="#000000" opacity="1.000000" stroke="none" 
	d="
M64.833191,58.663033 
	C74.375854,47.434452 86.138237,40.031628 100.038345,37.212784 
	C115.954727,33.985050 131.739532,34.875675 146.594910,42.910889 
	C167.708252,54.331001 180.062515,71.884911 183.960999,95.376221 
	C188.204773,120.948082 179.412323,142.214401 160.872589,159.428925 
	C149.350082,170.127792 135.285538,175.960968 119.356316,177.081161 
	C113.327164,177.505157 107.917725,179.991302 103.318459,184.138794 
	C97.855362,189.065277 92.241478,193.824539 86.406830,198.905396 
	C85.926689,192.043793 84.905762,185.401428 85.171646,178.810974 
	C85.395950,173.251099 83.115433,169.366959 79.046951,166.694473 
	C68.970985,160.075897 61.406845,151.148392 55.622696,140.906967 
	C50.461334,131.768234 47.480465,121.720261 46.944881,111.008064 
	C46.060333,93.316315 50.645653,77.334877 61.019318,63.009640 
	C62.072742,61.554935 63.393024,60.293480 64.833191,58.663033 
M107.961845,61.336529 
	C107.305145,62.801239 106.528297,64.224792 106.010330,65.737022 
	C100.864624,80.759972 93.935738,94.643311 82.094460,105.738792 
	C80.597572,107.141403 80.084129,110.914207 80.747917,113.090965 
	C85.601059,129.006012 90.821022,144.810760 96.120682,160.584656 
	C96.482750,161.662338 98.417290,162.874634 99.640274,162.896042 
	C110.131310,163.079666 120.629494,163.113403 131.117828,162.865372 
	C132.434540,162.834229 134.425079,161.150162 134.874680,159.817459 
	C136.820282,154.050201 138.094009,148.057388 140.013062,142.279800 
	C143.192596,132.707352 146.533401,123.181595 150.105942,113.749687 
	C151.696274,109.551010 151.202362,106.523842 147.912598,103.233795 
	C143.297302,98.618073 138.265518,93.925583 135.288025,88.276985 
	C130.395889,78.996185 126.916771,68.958397 123.036560,59.162663 
	C121.597885,55.530666 119.628899,53.206005 115.418594,54.023563 
	C111.705711,54.744526 108.685974,56.338955 107.961845,61.336529 
z"/>
<path fill="#FEFEFE" opacity="1.000000" stroke="none" 
	d="
M107.980217,60.939968 
	C108.685974,56.338955 111.705711,54.744526 115.418594,54.023563 
	C119.628899,53.206005 121.597885,55.530666 123.036560,59.162663 
	C126.916771,68.958397 130.395889,78.996185 135.288025,88.276985 
	C138.265518,93.925583 143.297302,98.618073 147.912598,103.233795 
	C151.202362,106.523842 151.696274,109.551010 150.105942,113.749687 
	C146.533401,123.181595 143.192596,132.707352 140.013062,142.279800 
	C138.094009,148.057388 136.820282,154.050201 134.874680,159.817459 
	C134.425079,161.150162 132.434540,162.834229 131.117828,162.865372 
	C120.629494,163.113403 110.131310,163.079666 99.640274,162.896042 
	C98.417290,162.874634 96.482750,161.662338 96.120682,160.584656 
	C90.821022,144.810760 85.601059,129.006012 80.747917,113.090965 
	C80.084129,110.914207 80.597572,107.141403 82.094460,105.738792 
	C93.935738,94.643311 100.864624,80.759972 106.010330,65.737022 
	C106.528297,64.224792 107.305145,62.801239 107.980217,60.939968 
M121.960594,88.547554 
	C119.804497,84.122437 117.648399,79.697319 116.148239,76.618431 
	C108.799911,88.134041 101.051582,100.276497 93.514420,112.088028 
	C97.203735,123.601051 101.229263,135.725143 104.899452,147.955887 
	C105.713676,150.669266 106.378479,152.235031 109.578072,152.070221 
	C114.333588,151.825287 119.111053,152.006790 123.997940,152.006790 
	C128.692566,138.554565 133.575668,124.562302 138.288025,111.059296 
	C132.919235,103.875809 127.474472,96.590660 121.960594,88.547554 
z"/>
<path fill="#000000" opacity="1.000000" stroke="none" 
	d="
M121.995148,88.926537 
	C127.474472,96.590660 132.919235,103.875809 138.288025,111.059296 
	C133.575668,124.562302 128.692566,138.554565 123.997940,152.006790 
	C119.111053,152.006790 114.333588,151.825287 109.578072,152.070221 
	C106.378479,152.235031 105.713676,150.669266 104.899452,147.955887 
	C101.229263,135.725143 97.203735,123.601051 93.514420,112.088028 
	C101.051582,100.276497 108.799911,88.134041 116.148239,76.618431 
	C117.648399,79.697319 119.804497,84.122437 121.995148,88.926537 
M109.999504,120.415878 
	C110.228020,125.042801 112.800972,127.274071 117.277794,126.942535 
	C121.235634,126.649422 123.257027,123.796997 123.876053,120.233887 
	C124.431496,117.036819 120.853912,113.247818 117.278740,113.042542 
	C112.788895,112.784752 110.229950,114.968613 109.999504,120.415878 
z"/>
<path fill="#FEFEFE" opacity="1.000000" stroke="none" 
	d="
M109.999565,120.004227 
	C110.229950,114.968613 112.788895,112.784752 117.278740,113.042542 
	C120.853912,113.247818 124.431496,117.036819 123.876053,120.233887 
	C123.257027,123.796997 121.235634,126.649422 117.277794,126.942535 
	C112.800972,127.274071 110.228020,125.042801 109.999565,120.004227 
z"/>
</svg>